<svg xmlns="http://www.w3.org/2000/svg" xmlns:xlink="http://www.w3.org/1999/xlink" width="500" zoomAndPan="magnify" viewBox="0 0 375 374.999991" height="500" preserveAspectRatio="xMidYMid meet" version="1.0"><defs><clipPath id="ea69bca97d"><path d="M 44 38 L 330 38 L 330 338.945312 L 44 338.945312 Z M 44 38 " clip-rule="nonzero"/></clipPath></defs><g clip-path="url(#ea69bca97d)"><path fill="#ffffff" d="M 187.382812 338.277344 C 184.746094 338.277344 182.152344 337.941406 179.601562 337.265625 C 177.050781 336.59375 174.632812 335.601562 172.339844 334.292969 L 80.253906 281.675781 C 78.238281 280.515625 76.378906 279.144531 74.671875 277.5625 C 72.96875 275.976562 71.46875 274.21875 70.167969 272.292969 C 68.863281 270.363281 67.796875 268.3125 66.96875 266.136719 C 66.136719 263.964844 65.558594 261.726562 65.242188 259.421875 L 45.195312 112.28125 C 45.082031 111.425781 45.003906 110.566406 44.960938 109.703125 C 44.921875 108.839844 44.914062 107.976562 44.949219 107.113281 C 44.980469 106.25 45.050781 105.390625 45.15625 104.53125 C 45.261719 103.675781 45.402344 102.824219 45.578125 101.980469 C 45.757812 101.132812 45.972656 100.296875 46.21875 99.472656 C 46.46875 98.644531 46.753906 97.828125 47.070312 97.027344 C 47.390625 96.222656 47.742188 95.433594 48.128906 94.660156 C 48.511719 93.890625 48.929688 93.132812 49.378906 92.398438 C 49.832031 91.660156 50.308594 90.941406 50.820312 90.246094 C 51.332031 89.550781 51.871094 88.875 52.441406 88.226562 C 53.007812 87.574219 53.601562 86.949219 54.222656 86.351562 C 54.84375 85.75 55.492188 85.179688 56.160156 84.632812 C 56.832031 84.089844 57.523438 83.574219 58.238281 83.085938 C 58.949219 82.601562 59.683594 82.148438 60.4375 81.722656 C 61.1875 81.300781 61.957031 80.910156 62.742188 80.550781 C 63.53125 80.191406 64.328125 79.871094 65.144531 79.578125 L 177.3125 39.960938 C 180.578125 38.808594 183.941406 38.230469 187.40625 38.230469 C 190.871094 38.230469 194.234375 38.808594 197.5 39.960938 L 309.667969 79.5625 C 310.484375 79.855469 311.28125 80.179688 312.070312 80.535156 C 312.855469 80.894531 313.625 81.285156 314.375 81.707031 C 315.128906 82.132812 315.863281 82.585938 316.574219 83.070312 C 317.289062 83.558594 317.980469 84.074219 318.652344 84.617188 C 319.320312 85.164062 319.96875 85.734375 320.589844 86.335938 C 321.210938 86.933594 321.804688 87.558594 322.371094 88.210938 C 322.941406 88.859375 323.480469 89.535156 323.992188 90.230469 C 324.503906 90.925781 324.980469 91.644531 325.433594 92.382812 C 325.882812 93.117188 326.300781 93.875 326.683594 94.648438 C 327.070312 95.417969 327.421875 96.207031 327.742188 97.011719 C 328.058594 97.8125 328.34375 98.628906 328.59375 99.457031 C 328.839844 100.28125 329.054688 101.117188 329.234375 101.964844 C 329.410156 102.808594 329.550781 103.660156 329.65625 104.519531 C 329.761719 105.375 329.832031 106.234375 329.863281 107.097656 C 329.898438 107.960938 329.890625 108.824219 329.851562 109.6875 C 329.808594 110.550781 329.730469 111.410156 329.617188 112.265625 L 309.519531 259.421875 C 309.199219 261.726562 308.625 263.964844 307.792969 266.136719 C 306.960938 268.308594 305.894531 270.359375 304.597656 272.285156 C 303.296875 274.214844 301.796875 275.972656 300.09375 277.558594 C 298.394531 279.140625 296.535156 280.515625 294.519531 281.675781 L 202.421875 334.292969 C 200.128906 335.601562 197.710938 336.59375 195.160156 337.269531 C 192.613281 337.945312 190.019531 338.277344 187.382812 338.277344 Z M 95.285156 255.335938 L 187.382812 308 L 279.484375 255.371094 L 299.550781 108.164062 L 187.382812 68.554688 L 75.214844 108.179688 L 95.269531 255.335938 Z M 95.285156 255.335938 " fill-opacity="1" fill-rule="nonzero"/></g><path fill="#ffffff" d="M 232.855469 249.617188 C 232.089844 249.617188 231.328125 249.558594 230.566406 249.441406 C 229.808594 249.328125 229.0625 249.152344 228.332031 248.925781 C 227.597656 248.695312 226.886719 248.410156 226.199219 248.074219 C 225.507812 247.734375 224.847656 247.347656 224.21875 246.910156 C 223.585938 246.472656 222.992188 245.988281 222.4375 245.460938 C 221.878906 244.933594 221.363281 244.367188 220.894531 243.761719 C 220.421875 243.152344 220 242.515625 219.625 241.84375 C 219.25 241.175781 218.929688 240.480469 218.660156 239.761719 L 187.382812 156.355469 L 156.105469 239.761719 C 155.742188 240.671875 155.292969 241.542969 154.761719 242.367188 C 154.230469 243.191406 153.625 243.957031 152.941406 244.664062 C 152.261719 245.371094 151.519531 246.007812 150.714844 246.570312 C 149.910156 247.132812 149.058594 247.613281 148.164062 248.011719 C 147.265625 248.410156 146.339844 248.714844 145.382812 248.933594 C 144.425781 249.152344 143.453125 249.273438 142.472656 249.304688 C 141.492188 249.332031 140.519531 249.265625 139.550781 249.105469 C 138.582031 248.945312 137.636719 248.695312 136.71875 248.351562 C 135.796875 248.007812 134.921875 247.578125 134.085938 247.0625 C 133.25 246.550781 132.46875 245.960938 131.75 245.292969 C 131.027344 244.628906 130.375 243.898438 129.796875 243.105469 C 129.214844 242.316406 128.71875 241.472656 128.300781 240.585938 C 127.882812 239.695312 127.558594 238.773438 127.320312 237.824219 C 127.082031 236.871094 126.9375 235.902344 126.886719 234.921875 C 126.835938 233.941406 126.878906 232.964844 127.019531 231.992188 C 127.160156 231.023438 127.390625 230.074219 127.714844 229.144531 L 173.1875 107.832031 C 173.457031 107.113281 173.777344 106.417969 174.152344 105.746094 C 174.527344 105.078125 174.949219 104.441406 175.421875 103.832031 C 175.894531 103.226562 176.40625 102.660156 176.964844 102.132812 C 177.523438 101.605469 178.117188 101.125 178.746094 100.6875 C 179.378906 100.25 180.035156 99.863281 180.726562 99.523438 C 181.414062 99.1875 182.125 98.90625 182.859375 98.675781 C 183.589844 98.445312 184.335938 98.273438 185.09375 98.15625 C 185.851562 98.042969 186.617188 97.984375 187.382812 97.984375 C 188.152344 97.984375 188.914062 98.042969 189.671875 98.15625 C 190.429688 98.273438 191.175781 98.445312 191.910156 98.675781 C 192.640625 98.90625 193.351562 99.1875 194.039062 99.523438 C 194.730469 99.863281 195.390625 100.25 196.019531 100.6875 C 196.652344 101.125 197.246094 101.605469 197.800781 102.132812 C 198.359375 102.660156 198.875 103.226562 199.34375 103.832031 C 199.816406 104.441406 200.238281 105.078125 200.613281 105.746094 C 200.988281 106.417969 201.308594 107.113281 201.578125 107.832031 L 247.050781 229.144531 C 247.265625 229.714844 247.445312 230.296875 247.585938 230.890625 C 247.730469 231.484375 247.835938 232.082031 247.910156 232.6875 C 247.980469 233.296875 248.011719 233.902344 248.011719 234.511719 C 248.007812 235.121094 247.96875 235.730469 247.894531 236.335938 C 247.820312 236.941406 247.707031 237.539062 247.558594 238.128906 C 247.410156 238.722656 247.226562 239.304688 247.011719 239.871094 C 246.792969 240.441406 246.542969 240.996094 246.257812 241.535156 C 245.972656 242.074219 245.65625 242.59375 245.308594 243.097656 C 244.960938 243.597656 244.585938 244.074219 244.179688 244.53125 C 243.773438 244.988281 243.34375 245.417969 242.886719 245.820312 C 242.429688 246.222656 241.949219 246.597656 241.445312 246.945312 C 240.945312 247.289062 240.421875 247.605469 239.882812 247.886719 C 239.34375 248.171875 238.789062 248.417969 238.21875 248.636719 C 237.648438 248.851562 237.066406 249.03125 236.476562 249.179688 C 235.882812 249.324219 235.285156 249.433594 234.679688 249.507812 C 234.074219 249.582031 233.46875 249.617188 232.855469 249.617188 Z M 232.855469 249.617188 " fill-opacity="1" fill-rule="nonzero"/><path fill="#ffffff" d="M 217.699219 219.289062 L 157.066406 219.289062 C 156.074219 219.289062 155.085938 219.191406 154.109375 218.996094 C 153.132812 218.804688 152.1875 218.515625 151.265625 218.132812 C 150.347656 217.753906 149.472656 217.285156 148.644531 216.734375 C 147.820312 216.179688 147.054688 215.550781 146.347656 214.847656 C 145.644531 214.144531 145.015625 213.378906 144.464844 212.550781 C 143.910156 211.722656 143.445312 210.847656 143.0625 209.925781 C 142.683594 209.007812 142.394531 208.058594 142.199219 207.082031 C 142.007812 206.105469 141.910156 205.121094 141.910156 204.125 C 141.910156 203.128906 142.007812 202.140625 142.199219 201.164062 C 142.394531 200.1875 142.683594 199.242188 143.0625 198.320312 C 143.445312 197.402344 143.910156 196.527344 144.464844 195.699219 C 145.015625 194.871094 145.644531 194.105469 146.347656 193.402344 C 147.054688 192.699219 147.820312 192.070312 148.644531 191.515625 C 149.472656 190.960938 150.347656 190.496094 151.265625 190.113281 C 152.1875 189.734375 153.132812 189.445312 154.109375 189.25 C 155.085938 189.058594 156.074219 188.960938 157.066406 188.960938 L 217.699219 188.960938 C 218.695312 188.960938 219.679688 189.058594 220.65625 189.25 C 221.632812 189.445312 222.582031 189.734375 223.5 190.113281 C 224.417969 190.496094 225.292969 190.960938 226.121094 191.515625 C 226.949219 192.070312 227.714844 192.699219 228.417969 193.402344 C 229.121094 194.105469 229.75 194.871094 230.300781 195.699219 C 230.855469 196.527344 231.324219 197.402344 231.703125 198.320312 C 232.085938 199.242188 232.371094 200.1875 232.566406 201.164062 C 232.761719 202.140625 232.855469 203.128906 232.855469 204.125 C 232.855469 205.121094 232.761719 206.105469 232.566406 207.082031 C 232.371094 208.058594 232.085938 209.007812 231.703125 209.925781 C 231.324219 210.847656 230.855469 211.722656 230.300781 212.550781 C 229.75 213.378906 229.121094 214.144531 228.417969 214.847656 C 227.714844 215.550781 226.949219 216.179688 226.121094 216.734375 C 225.292969 217.285156 224.417969 217.753906 223.5 218.132812 C 222.582031 218.515625 221.632812 218.804688 220.65625 218.996094 C 219.679688 219.191406 218.695312 219.289062 217.699219 219.289062 Z M 217.699219 219.289062 " fill-opacity="1" fill-rule="nonzero"/></svg>