<svg xmlns="http://www.w3.org/2000/svg" xmlns:xlink="http://www.w3.org/1999/xlink" width="500" zoomAndPan="magnify" viewBox="0 0 375 374.999991" height="500" preserveAspectRatio="xMidYMid meet" version="1.0"><defs><clipPath id="ea094f3ef0"><path d="M 19.597656 44 L 355.597656 44 L 355.597656 330.984375 L 19.597656 330.984375 Z M 19.597656 44 " clip-rule="nonzero"/></clipPath></defs><g clip-path="url(#ea094f3ef0)"><path fill="#ffffff" d="M 91.085938 44.605469 L 91.085938 92.191406 L 138.746094 92.191406 L 138.746094 44.605469 Z M 162.578125 44.605469 L 162.578125 92.191406 L 210.238281 92.191406 L 210.238281 44.605469 Z M 276.933594 108.175781 L 267.25 115.285156 C 267.25 115.285156 259.164062 121.21875 251.148438 130.480469 C 243.128906 139.742188 234.066406 152.902344 234.066406 169.515625 C 234.066406 181.207031 235.023438 181.742188 235.972656 187.359375 L 19.132812 187.359375 L 19.597656 199.71875 C 20.894531 232.066406 30.925781 259.332031 46.40625 280.714844 L 46.40625 282.527344 L 47.847656 282.527344 C 70.328125 312.394531 103.914062 329.992188 141.679688 330.113281 L 141.726562 330.113281 C 186.734375 330.113281 217.957031 319.410156 240.863281 300.699219 C 262.148438 283.308594 275.253906 259.308594 288.707031 233.597656 C 332.644531 229.746094 352.003906 195.539062 352.003906 195.539062 L 356.054688 187.265625 L 349.074219 181.316406 C 349.074219 181.316406 329.144531 167.417969 302.902344 165.613281 C 298.824219 140.050781 283.960938 117.933594 283.960938 117.933594 Z M 19.597656 115.980469 L 19.597656 163.566406 L 67.257812 163.566406 L 67.257812 115.980469 Z M 91.085938 115.980469 L 91.085938 163.566406 L 138.746094 163.566406 L 138.746094 115.980469 Z M 162.578125 115.980469 L 162.578125 163.566406 L 210.238281 163.566406 L 210.238281 115.980469 Z M 269.902344 145.304688 C 274.941406 154.199219 281.726562 163.460938 281.726562 175.460938 L 281.726562 188.753906 L 294.945312 187.265625 C 307.066406 185.921875 316.808594 189.710938 323.941406 193.539062 C 317.96875 201.242188 307.230469 211.152344 281.726562 211.152344 L 274.464844 211.152344 L 271.113281 217.609375 C 256.847656 245.226562 244.089844 267.339844 225.78125 282.296875 C 207.480469 297.246094 183.109375 306.3125 141.773438 306.320312 C 117.566406 306.242188 95.996094 297.929688 79.3125 282.527344 L 114.917969 282.527344 L 114.917969 258.734375 L 61.066406 258.734375 C 53.566406 245.367188 48.109375 229.65625 45.847656 211.152344 L 265.484375 211.152344 L 260.269531 195.492188 C 260.269531 195.492188 257.894531 189.199219 257.894531 169.515625 C 257.894531 162.332031 263.007812 153.152344 269.160156 146.046875 C 269.542969 145.605469 269.523438 145.726562 269.902344 145.304688 Z M 150.660156 234.945312 C 149.878906 234.945312 149.105469 235.019531 148.335938 235.171875 C 147.570312 235.324219 146.824219 235.550781 146.101562 235.847656 C 145.378906 236.148438 144.691406 236.515625 144.042969 236.949219 C 143.390625 237.382812 142.789062 237.875 142.238281 238.429688 C 141.683594 238.980469 141.191406 239.582031 140.753906 240.230469 C 140.320312 240.878906 139.953125 241.566406 139.652344 242.289062 C 139.355469 243.007812 139.128906 243.753906 138.976562 244.519531 C 138.824219 245.285156 138.746094 246.058594 138.746094 246.839844 C 138.746094 247.621094 138.824219 248.394531 138.976562 249.160156 C 139.128906 249.925781 139.355469 250.671875 139.652344 251.390625 C 139.953125 252.113281 140.320312 252.800781 140.753906 253.449219 C 141.191406 254.097656 141.683594 254.699219 142.238281 255.25 C 142.789062 255.804688 143.390625 256.296875 144.042969 256.730469 C 144.691406 257.164062 145.378906 257.53125 146.101562 257.832031 C 146.824219 258.128906 147.570312 258.355469 148.335938 258.507812 C 149.105469 258.660156 149.878906 258.734375 150.660156 258.734375 C 151.445312 258.734375 152.21875 258.660156 152.988281 258.507812 C 153.753906 258.355469 154.5 258.128906 155.222656 257.832031 C 155.945312 257.53125 156.632812 257.164062 157.28125 256.730469 C 157.933594 256.296875 158.535156 255.804688 159.085938 255.25 C 159.640625 254.699219 160.132812 254.097656 160.570312 253.449219 C 161.003906 252.800781 161.371094 252.113281 161.667969 251.390625 C 161.96875 250.671875 162.195312 249.925781 162.347656 249.160156 C 162.5 248.394531 162.578125 247.621094 162.578125 246.839844 C 162.578125 246.058594 162.5 245.285156 162.347656 244.519531 C 162.195312 243.753906 161.96875 243.007812 161.667969 242.289062 C 161.371094 241.566406 161.003906 240.878906 160.570312 240.230469 C 160.132812 239.582031 159.640625 238.980469 159.085938 238.429688 C 158.535156 237.875 157.933594 237.382812 157.28125 236.949219 C 156.632812 236.515625 155.945312 236.148438 155.222656 235.847656 C 154.5 235.550781 153.753906 235.324219 152.988281 235.171875 C 152.21875 235.019531 151.445312 234.945312 150.660156 234.945312 Z M 150.660156 234.945312 " fill-opacity="1" fill-rule="nonzero"/></g></svg>