<svg xmlns="http://www.w3.org/2000/svg" xmlns:xlink="http://www.w3.org/1999/xlink" width="500" zoomAndPan="magnify" viewBox="0 0 375 374.999991" height="500" preserveAspectRatio="xMidYMid meet" version="1.0"><defs><clipPath id="f24180e2ad"><path d="M 16.875 243 L 166 243 L 166 316 L 16.875 316 Z M 16.875 243 " clip-rule="nonzero"/></clipPath></defs><path fill="#ffffff" d="M 256.449219 374.90625 C 255.566406 374.90625 254.691406 374.820312 253.824219 374.648438 C 252.960938 374.472656 252.121094 374.21875 251.304688 373.882812 C 250.488281 373.542969 249.714844 373.128906 248.980469 372.640625 C 248.246094 372.148438 247.566406 371.589844 246.941406 370.96875 C 246.316406 370.34375 245.761719 369.664062 245.269531 368.929688 C 244.777344 368.195312 244.363281 367.421875 244.027344 366.605469 C 243.6875 365.789062 243.433594 364.949219 243.261719 364.082031 C 243.089844 363.214844 243.003906 362.34375 243.003906 361.460938 L 243.003906 291.90625 C 243.003906 291.40625 243.03125 290.910156 243.085938 290.414062 C 243.597656 285.882812 243.667969 281.347656 243.292969 276.804688 C 242.917969 272.261719 242.101562 267.800781 240.851562 263.417969 C 239.597656 259.035156 237.929688 254.816406 235.851562 250.761719 C 233.769531 246.707031 231.3125 242.890625 228.480469 239.320312 C 227.699219 238.328125 227.070312 237.246094 226.59375 236.078125 C 226.117188 234.910156 225.808594 233.699219 225.675781 232.441406 C 225.539062 231.1875 225.578125 229.9375 225.796875 228.695312 C 226.011719 227.449219 226.394531 226.261719 226.945312 225.125 C 227.5 223.988281 228.195312 222.949219 229.039062 222.011719 C 229.882812 221.074219 230.839844 220.269531 231.910156 219.597656 C 232.980469 218.929688 234.121094 218.417969 235.335938 218.070312 C 236.550781 217.722656 237.789062 217.550781 239.050781 217.550781 C 283.125 217.550781 329.96875 188.738281 329.96875 135.332031 C 329.96875 135.035156 329.96875 134.753906 329.96875 134.46875 C 330.265625 129.859375 330.164062 125.253906 329.667969 120.65625 C 329.175781 116.0625 328.292969 111.539062 327.027344 107.097656 C 325.757812 102.652344 324.121094 98.347656 322.117188 94.179688 C 320.113281 90.015625 317.769531 86.050781 315.085938 82.289062 C 314.523438 81.5 314.050781 80.664062 313.667969 79.773438 C 313.285156 78.882812 313.003906 77.964844 312.820312 77.015625 C 312.636719 76.0625 312.558594 75.105469 312.582031 74.136719 C 312.605469 73.171875 312.730469 72.214844 312.960938 71.277344 C 316.214844 57.78125 317.019531 44.144531 315.367188 30.359375 C 307.917969 33.425781 296.730469 39.277344 281.863281 50.433594 C 280.351562 51.566406 278.675781 52.347656 276.835938 52.773438 C 274.996094 53.199219 273.148438 53.234375 271.292969 52.882812 C 249.132812 48.667969 226.777344 46.5625 204.21875 46.5625 C 181.664062 46.5625 159.304688 48.667969 137.144531 52.882812 C 135.292969 53.234375 133.445312 53.199219 131.605469 52.773438 C 129.765625 52.347656 128.089844 51.566406 126.578125 50.433594 C 111.625 39.128906 100.386719 33.320312 92.9375 30.28125 C 92.054688 37.097656 91.828125 43.933594 92.261719 50.796875 C 92.695312 57.65625 93.78125 64.410156 95.519531 71.0625 C 95.765625 72.015625 95.910156 72.984375 95.945312 73.972656 C 95.980469 74.957031 95.90625 75.9375 95.726562 76.90625 C 95.546875 77.875 95.265625 78.816406 94.878906 79.722656 C 94.492188 80.632812 94.007812 81.484375 93.433594 82.289062 C 90.746094 86.046875 88.398438 90.007812 86.386719 94.171875 C 84.378906 98.335938 82.738281 102.640625 81.46875 107.082031 C 80.199219 111.527344 79.316406 116.046875 78.820312 120.644531 C 78.328125 125.238281 78.226562 129.84375 78.523438 134.457031 C 78.523438 134.753906 78.523438 135.046875 78.523438 135.34375 C 78.523438 188.75 125.367188 217.5625 169.441406 217.5625 C 170.707031 217.5625 171.949219 217.738281 173.164062 218.085938 C 174.382812 218.4375 175.527344 218.949219 176.597656 219.621094 C 177.671875 220.292969 178.628906 221.101562 179.472656 222.042969 C 180.316406 222.988281 181.011719 224.027344 181.5625 225.167969 C 182.113281 226.308594 182.496094 227.5 182.707031 228.75 C 182.921875 229.996094 182.957031 231.25 182.816406 232.507812 C 182.675781 233.765625 182.363281 234.976562 181.878906 236.148438 C 181.394531 237.316406 180.757812 238.398438 179.96875 239.386719 C 174.226562 246.546875 170.105469 254.542969 167.601562 263.375 C 165.085938 272.234375 164.355469 281.238281 165.410156 290.386719 C 165.472656 290.886719 165.503906 291.386719 165.503906 291.890625 L 165.503906 361.460938 C 165.503906 362.34375 165.417969 363.214844 165.246094 364.082031 C 165.074219 364.949219 164.816406 365.789062 164.480469 366.605469 C 164.140625 367.421875 163.726562 368.195312 163.238281 368.929688 C 162.746094 369.664062 162.1875 370.34375 161.566406 370.96875 C 160.941406 371.589844 160.261719 372.148438 159.527344 372.640625 C 158.792969 373.128906 158.019531 373.542969 157.203125 373.882812 C 156.386719 374.21875 155.546875 374.472656 154.679688 374.648438 C 153.816406 374.820312 152.941406 374.90625 152.058594 374.90625 C 151.175781 374.90625 150.300781 374.820312 149.433594 374.648438 C 148.566406 374.472656 147.726562 374.21875 146.910156 373.882812 C 146.097656 373.542969 145.320312 373.128906 144.585938 372.640625 C 143.851562 372.148438 143.175781 371.589844 142.550781 370.96875 C 141.925781 370.34375 141.367188 369.664062 140.878906 368.929688 C 140.386719 368.195312 139.972656 367.421875 139.636719 366.605469 C 139.296875 365.789062 139.042969 364.949219 138.871094 364.082031 C 138.699219 363.214844 138.613281 362.34375 138.613281 361.460938 L 138.613281 292.617188 C 137.953125 286.480469 137.890625 280.332031 138.414062 274.183594 C 138.9375 268.03125 140.042969 261.984375 141.730469 256.046875 C 143.042969 251.386719 144.707031 246.855469 146.71875 242.453125 C 141.457031 241.5625 136.269531 240.335938 131.164062 238.773438 C 126.058594 237.214844 121.074219 235.332031 116.210938 233.125 C 111.347656 230.921875 106.648438 228.414062 102.109375 225.601562 C 97.570312 222.789062 93.230469 219.699219 89.089844 216.328125 C 65.078125 196.292969 51.832031 167.707031 51.660156 135.773438 C 51.324219 130.183594 51.421875 124.597656 51.957031 119.019531 C 52.492188 113.441406 53.457031 107.941406 54.851562 102.511719 C 56.242188 97.085938 58.046875 91.800781 60.265625 86.652344 C 62.484375 81.507812 65.085938 76.566406 68.074219 71.828125 C 65.917969 61.640625 64.957031 51.339844 65.195312 40.929688 C 65.4375 30.515625 66.867188 20.269531 69.488281 10.191406 C 69.675781 9.476562 69.917969 8.78125 70.21875 8.105469 C 70.519531 7.433594 70.875 6.785156 71.28125 6.167969 C 71.6875 5.550781 72.144531 4.972656 72.644531 4.433594 C 73.148438 3.890625 73.691406 3.394531 74.277344 2.941406 C 74.863281 2.488281 75.480469 2.089844 76.132812 1.738281 C 76.78125 1.386719 77.457031 1.09375 78.15625 0.855469 C 78.855469 0.617188 79.570312 0.4375 80.300781 0.316406 C 81.03125 0.195312 81.765625 0.136719 82.503906 0.136719 C 86 0.136719 104.472656 1.398438 137.964844 25.414062 C 159.898438 21.582031 181.996094 19.664062 204.261719 19.664062 C 226.523438 19.664062 248.621094 21.582031 270.554688 25.414062 C 304.046875 1.398438 322.535156 0.136719 326.015625 0.136719 C 326.765625 0.136719 327.507812 0.195312 328.246094 0.320312 C 328.984375 0.445312 329.707031 0.628906 330.414062 0.871094 C 331.121094 1.117188 331.800781 1.417969 332.457031 1.773438 C 333.113281 2.132812 333.738281 2.542969 334.324219 3.003906 C 334.914062 3.464844 335.460938 3.972656 335.964844 4.527344 C 336.46875 5.078125 336.921875 5.671875 337.328125 6.300781 C 337.730469 6.929688 338.082031 7.585938 338.378906 8.273438 C 338.671875 8.960938 338.910156 9.667969 339.085938 10.394531 C 341.527344 20.449219 342.863281 30.648438 343.089844 40.992188 C 343.316406 51.335938 342.429688 61.582031 340.429688 71.734375 C 343.421875 76.480469 346.03125 81.429688 348.253906 86.582031 C 350.476562 91.734375 352.285156 97.027344 353.683594 102.464844 C 355.082031 107.898438 356.050781 113.40625 356.589844 118.992188 C 357.128906 124.578125 357.234375 130.171875 356.902344 135.773438 C 356.78125 167.695312 343.457031 196.28125 319.457031 216.328125 C 315.308594 219.703125 310.964844 222.796875 306.417969 225.609375 C 301.871094 228.421875 297.164062 230.933594 292.296875 233.136719 C 287.425781 235.34375 282.433594 237.226562 277.320312 238.789062 C 272.210938 240.347656 267.019531 241.574219 261.746094 242.464844 C 263.527344 246.367188 265.042969 250.371094 266.292969 254.476562 C 267.539062 258.582031 268.511719 262.75 269.203125 266.984375 C 269.894531 271.21875 270.300781 275.480469 270.421875 279.769531 C 270.546875 284.058594 270.382812 288.335938 269.933594 292.605469 L 269.933594 361.460938 C 269.933594 362.34375 269.847656 363.21875 269.675781 364.085938 C 269.503906 364.953125 269.246094 365.796875 268.90625 366.613281 C 268.570312 367.429688 268.152344 368.207031 267.660156 368.941406 C 267.167969 369.675781 266.609375 370.355469 265.984375 370.980469 C 265.355469 371.605469 264.675781 372.164062 263.9375 372.652344 C 263.203125 373.144531 262.425781 373.554688 261.605469 373.894531 C 260.789062 374.230469 259.945312 374.484375 259.078125 374.652344 C 258.210938 374.824219 257.332031 374.90625 256.449219 374.90625 Z M 256.449219 374.90625 " fill-opacity="1" fill-rule="nonzero"/><g clip-path="url(#f24180e2ad)"><path fill="#ffffff" d="M 112.6875 315.003906 C 82.945312 315.003906 65.359375 297.902344 52.425781 285.316406 C 43.011719 276.160156 36.894531 270.527344 30.320312 270.527344 C 29.4375 270.527344 28.5625 270.441406 27.699219 270.269531 C 26.832031 270.097656 25.992188 269.839844 25.175781 269.503906 C 24.359375 269.164062 23.585938 268.75 22.851562 268.261719 C 22.117188 267.769531 21.4375 267.210938 20.8125 266.589844 C 20.1875 265.964844 19.632812 265.285156 19.140625 264.550781 C 18.652344 263.816406 18.238281 263.042969 17.898438 262.226562 C 17.5625 261.410156 17.304688 260.570312 17.132812 259.703125 C 16.960938 258.839844 16.875 257.964844 16.875 257.082031 C 16.875 256.199219 16.960938 255.324219 17.132812 254.457031 C 17.304688 253.59375 17.5625 252.75 17.898438 251.9375 C 18.238281 251.121094 18.652344 250.34375 19.140625 249.609375 C 19.632812 248.878906 20.1875 248.199219 20.8125 247.574219 C 21.4375 246.949219 22.117188 246.390625 22.851562 245.902344 C 23.585938 245.410156 24.359375 244.996094 25.175781 244.660156 C 25.992188 244.320312 26.832031 244.066406 27.699219 243.894531 C 28.5625 243.722656 29.4375 243.636719 30.320312 243.636719 C 48.148438 243.636719 60.386719 255.535156 71.167969 266.023438 C 88.996094 283.355469 104.390625 298.292969 146.625 279.589844 C 147.433594 279.21875 148.273438 278.929688 149.136719 278.722656 C 150.003906 278.519531 150.882812 278.398438 151.773438 278.367188 C 152.664062 278.335938 153.546875 278.394531 154.425781 278.539062 C 155.304688 278.683594 156.160156 278.914062 156.992188 279.226562 C 157.824219 279.542969 158.617188 279.9375 159.375 280.410156 C 160.128906 280.882812 160.828125 281.421875 161.476562 282.035156 C 162.121094 282.644531 162.703125 283.316406 163.21875 284.042969 C 163.730469 284.769531 164.167969 285.539062 164.53125 286.355469 C 164.890625 287.167969 165.167969 288.007812 165.363281 288.878906 C 165.558594 289.746094 165.664062 290.625 165.683594 291.515625 C 165.703125 292.40625 165.632812 293.289062 165.476562 294.167969 C 165.320312 295.042969 165.078125 295.894531 164.753906 296.722656 C 164.429688 297.550781 164.023438 298.339844 163.542969 299.089844 C 163.058594 299.839844 162.507812 300.53125 161.886719 301.171875 C 161.269531 301.808594 160.589844 302.382812 159.859375 302.886719 C 159.125 303.390625 158.347656 303.816406 157.53125 304.167969 C 140.035156 311.9375 125.273438 315.003906 112.6875 315.003906 Z M 112.6875 315.003906 " fill-opacity="1" fill-rule="nonzero"/></g></svg>