<svg xmlns="http://www.w3.org/2000/svg" xmlns:xlink="http://www.w3.org/1999/xlink" width="500" zoomAndPan="magnify" viewBox="0 0 375 374.999991" height="500" preserveAspectRatio="xMidYMid meet" version="1.0"><defs><clipPath id="cd4f4514e1"><path d="M 56 40 L 319.015625 40 L 319.015625 335 L 56 335 Z M 56 40 " clip-rule="nonzero"/></clipPath></defs><g clip-path="url(#cd4f4514e1)"><path fill="#ffffff" d="M 317.570312 42.144531 C 316.351562 40.816406 314.644531 40.058594 312.84375 40.058594 L 62.582031 40.058594 C 60.78125 40.058594 59.074219 40.816406 57.855469 42.144531 C 56.636719 43.46875 56.042969 45.25 56.203125 47.039062 L 78.75 299.683594 C 78.984375 302.324219 80.824219 304.546875 83.375 305.277344 L 185.917969 334.582031 C 186.488281 334.742188 187.085938 334.828125 187.675781 334.828125 C 188.261719 334.828125 188.859375 334.742188 189.429688 334.582031 L 292.066406 305.277344 C 294.613281 304.546875 296.453125 302.324219 296.6875 299.683594 L 319.222656 47.039062 C 319.382812 45.25 318.78125 43.46875 317.570312 42.144531 Z M 104.445312 213.101562 L 149.28125 225.546875 L 149.28125 97.730469 L 174.902344 97.730469 L 174.902344 264.339844 L 104.445312 244.789062 Z M 271.324219 168.21875 L 264.574219 246.71875 L 200.523438 264.339844 L 200.523438 234.855469 L 243.757812 222.96875 L 245.359375 198.9375 L 200.523438 206.667969 L 200.523438 97.730469 L 277.382812 97.730469 L 275.175781 123.363281 L 226.144531 123.363281 L 226.144531 174.628906 Z M 271.324219 168.21875 " fill-opacity="1" fill-rule="nonzero"/></g></svg>