<svg xmlns="http://www.w3.org/2000/svg" xmlns:xlink="http://www.w3.org/1999/xlink" width="500" zoomAndPan="magnify" viewBox="0 0 375 374.999991" height="500" preserveAspectRatio="xMidYMid meet" version="1.0"><defs><clipPath id="bd9e270390"><path d="M 18.285156 18.285156 L 361.035156 18.285156 L 361.035156 361.035156 L 18.285156 361.035156 Z M 18.285156 18.285156 " clip-rule="nonzero"/></clipPath></defs><g clip-path="url(#bd9e270390)"><path fill="#ffffff" d="M 189.667969 18.273438 C 95.015625 18.273438 18.285156 95.035156 18.285156 189.6875 C 18.285156 284.308594 95.015625 361.035156 189.667969 361.035156 C 284.320312 361.035156 361.050781 284.308594 361.050781 189.6875 C 361.050781 95.035156 284.320312 18.273438 189.667969 18.273438 Z M 189.667969 273.269531 C 143.644531 273.269531 106.3125 235.96875 106.3125 189.945312 C 106.3125 143.921875 143.644531 106.621094 189.667969 106.621094 C 235.691406 106.621094 272.992188 143.921875 272.992188 189.945312 C 272.992188 235.96875 235.691406 273.269531 189.667969 273.269531 Z M 189.667969 273.269531 " fill-opacity="1" fill-rule="nonzero"/></g></svg>