<svg xmlns="http://www.w3.org/2000/svg" xmlns:xlink="http://www.w3.org/1999/xlink" width="500" zoomAndPan="magnify" viewBox="0 0 375 374.999991" height="500" preserveAspectRatio="xMidYMid meet" version="1.0"><defs><clipPath id="88babf6f5c"><path d="M 10.710938 91.8125 L 363.960938 91.8125 L 363.960938 283.0625 L 10.710938 283.0625 Z M 10.710938 91.8125 " clip-rule="nonzero"/></clipPath></defs><g clip-path="url(#88babf6f5c)"><path fill="#ffffff" d="M 187.335938 91.8125 C 88.378906 91.8125 10.847656 133.820312 10.847656 187.4375 C 10.847656 241.054688 88.378906 283.0625 187.335938 283.0625 C 286.296875 283.0625 363.824219 241.054688 363.824219 187.4375 C 363.824219 133.820312 286.296875 91.8125 187.335938 91.8125 Z M 169.011719 121.238281 L 188.285156 121.238281 L 182.167969 150.660156 L 199.371094 150.660156 C 210.289062 150.660156 217.613281 152.183594 221.777344 156.003906 C 225.859375 159.769531 227.09375 165.945312 225.457031 174.363281 L 217.8125 209.503906 L 198.222656 209.503906 L 205.261719 177.007812 C 206.125 172.554688 205.777344 169.453125 204.285156 167.8125 C 202.789062 166.175781 199.515625 165.371094 194.605469 165.371094 L 179.179688 165.371094 L 169.871094 209.503906 L 150.566406 209.503906 Z M 84.386719 150.660156 L 123.59375 150.660156 C 142.296875 150.660156 153.613281 163.1875 149.191406 181.894531 C 144.046875 203.617188 130.257812 209.503906 104.921875 209.503906 L 92.800781 209.503906 L 88.953125 231.574219 L 69.476562 231.574219 Z M 238.8125 150.660156 L 278.023438 150.660156 C 296.722656 150.660156 308.039062 163.1875 303.617188 181.894531 C 298.476562 203.617188 284.6875 209.503906 259.351562 209.503906 L 247.230469 209.503906 L 243.378906 231.574219 L 223.902344 231.574219 Z M 101.074219 165.371094 L 95.53125 194.792969 L 108.113281 194.792969 C 119 194.792969 129.109375 193.558594 130.804688 177.324219 C 131.4375 171.03125 128.824219 165.371094 116.242188 165.371094 Z M 255.503906 165.371094 L 249.957031 194.792969 L 262.539062 194.792969 C 273.425781 194.792969 283.539062 193.558594 285.234375 177.324219 C 285.863281 171.03125 283.25 165.371094 270.667969 165.371094 Z M 255.503906 165.371094 " fill-opacity="1" fill-rule="nonzero"/></g></svg>