<svg xmlns="http://www.w3.org/2000/svg" xmlns:xlink="http://www.w3.org/1999/xlink" width="500" zoomAndPan="magnify" viewBox="0 0 375 374.999991" height="500" preserveAspectRatio="xMidYMid meet" version="1.0"><defs><clipPath id="e061aa7b83"><path d="M 27.863281 27.863281 L 347.363281 27.863281 L 347.363281 347.363281 L 27.863281 347.363281 Z M 27.863281 27.863281 " clip-rule="nonzero"/></clipPath></defs><g clip-path="url(#e061aa7b83)"><path fill="#ffffff" d="M 300.84375 300.523438 L 200.136719 300.523438 C 225.632812 282.375 242.3125 252.535156 242.3125 218.921875 C 242.3125 166.972656 202.566406 124.160156 151.957031 119.238281 C 156.367188 78.34375 191.0625 46.394531 233.046875 46.394531 C 277.519531 46.394531 313.75 82.175781 314.582031 126.460938 L 300.394531 124.097656 L 319.054688 157.066406 L 347.363281 131.890625 L 333.175781 129.527344 L 333.175781 127.992188 C 333.175781 72.785156 288.253906 27.863281 233.046875 27.863281 C 180.839844 27.863281 137.835938 68.054688 133.363281 119.175781 C 82.304688 123.648438 42.113281 166.652344 42.113281 218.921875 L 42.113281 220.457031 L 27.863281 222.820312 L 56.171875 247.996094 L 74.828125 215.027344 L 60.644531 217.390625 C 61.472656 173.105469 97.707031 137.324219 142.179688 137.324219 C 187.164062 137.324219 223.78125 173.9375 223.78125 218.921875 C 223.78125 263.910156 187.164062 300.523438 142.179688 300.523438 L 27.863281 300.523438 L 27.863281 319.054688 L 300.84375 319.054688 L 300.84375 347.363281 L 347.363281 309.789062 L 300.84375 272.214844 Z M 300.84375 300.523438 " fill-opacity="1" fill-rule="nonzero"/></g></svg>