<svg xmlns="http://www.w3.org/2000/svg" xmlns:xlink="http://www.w3.org/1999/xlink" width="500" zoomAndPan="magnify" viewBox="0 0 375 374.999991" height="500" preserveAspectRatio="xMidYMid meet" version="1.0"><defs><clipPath id="1cd737a222"><path d="M 22 71.121094 L 353 71.121094 L 353 303 L 22 303 Z M 22 71.121094 " clip-rule="nonzero"/></clipPath></defs><g clip-path="url(#1cd737a222)"><path fill="#ffffff" d="M 193.273438 302.761719 C 148.347656 302.761719 126.742188 281.25 110.960938 265.539062 C 108.101562 261.972656 104.839844 258.824219 101.175781 256.089844 C 97.511719 253.355469 93.5625 251.128906 89.328125 249.402344 C 79.871094 247.085938 67.125 246.929688 52.492188 266.058594 C 51.917969 266.808594 51.289062 267.503906 50.597656 268.144531 C 49.902344 268.785156 49.164062 269.363281 48.371094 269.878906 C 47.582031 270.390625 46.753906 270.835938 45.886719 271.207031 C 45.019531 271.578125 44.125 271.875 43.210938 272.09375 C 42.292969 272.3125 41.363281 272.449219 40.421875 272.507812 C 39.480469 272.570312 38.539062 272.546875 37.601562 272.445312 C 36.664062 272.34375 35.742188 272.164062 34.835938 271.902344 C 33.929688 271.644531 33.050781 271.308594 32.203125 270.898438 C 31.351562 270.484375 30.546875 270.007812 29.777344 269.457031 C 29.011719 268.90625 28.296875 268.296875 27.636719 267.625 C 26.972656 266.953125 26.375 266.230469 25.835938 265.453125 C 25.300781 264.679688 24.832031 263.867188 24.433594 263.011719 C 24.035156 262.15625 23.714844 261.273438 23.46875 260.363281 C 23.222656 259.453125 23.054688 258.527344 22.964844 257.589844 C 22.878906 256.648438 22.871094 255.710938 22.945312 254.769531 C 23.019531 253.832031 23.171875 252.902344 23.40625 251.988281 C 35.558594 204.324219 67.695312 179.128906 116.335938 179.128906 C 161.261719 179.128906 182.867188 200.640625 198.648438 216.351562 C 201.507812 219.917969 204.769531 223.066406 208.433594 225.800781 C 212.097656 228.535156 216.046875 230.761719 220.28125 232.488281 C 229.746094 234.796875 242.484375 234.960938 257.117188 215.832031 C 257.691406 215.082031 258.320312 214.386719 259.015625 213.746094 C 259.707031 213.105469 260.445312 212.527344 261.238281 212.011719 C 262.027344 211.5 262.855469 211.054688 263.722656 210.683594 C 264.589844 210.3125 265.484375 210.015625 266.398438 209.796875 C 267.316406 209.578125 268.246094 209.441406 269.1875 209.382812 C 270.128906 209.320312 271.070312 209.34375 272.007812 209.445312 C 272.945312 209.546875 273.867188 209.726562 274.773438 209.988281 C 275.679688 210.246094 276.558594 210.582031 277.40625 210.992188 C 278.257812 211.40625 279.0625 211.882812 279.832031 212.433594 C 280.597656 212.984375 281.3125 213.59375 281.972656 214.265625 C 282.636719 214.9375 283.234375 215.660156 283.773438 216.433594 C 284.308594 217.210938 284.777344 218.023438 285.175781 218.878906 C 285.574219 219.734375 285.894531 220.617188 286.140625 221.527344 C 286.386719 222.4375 286.554688 223.363281 286.644531 224.300781 C 286.730469 225.242188 286.738281 226.179688 286.664062 227.121094 C 286.589844 228.058594 286.4375 228.988281 286.203125 229.902344 C 274.050781 277.566406 241.914062 302.761719 193.273438 302.761719 Z M 90.292969 216.054688 C 92.609375 216.382812 94.902344 216.828125 97.175781 217.390625 C 100.769531 218.523438 104.265625 219.90625 107.664062 221.539062 C 111.0625 223.167969 114.328125 225.03125 117.457031 227.128906 C 120.589844 229.226562 123.558594 231.53125 126.363281 234.050781 C 129.164062 236.570312 131.777344 239.273438 134.195312 242.164062 C 148.488281 256.382812 161.96875 269.792969 193.273438 269.792969 C 202.183594 269.980469 210.863281 268.660156 219.316406 265.835938 C 217 265.507812 214.707031 265.0625 212.433594 264.5 C 208.839844 263.367188 205.34375 261.984375 201.945312 260.351562 C 198.546875 258.722656 195.28125 256.859375 192.152344 254.761719 C 189.019531 252.664062 186.050781 250.359375 183.25 247.839844 C 180.445312 245.320312 177.832031 242.617188 175.414062 239.726562 C 161.121094 225.507812 147.640625 212.097656 116.335938 212.097656 C 107.425781 211.910156 98.746094 213.230469 90.292969 216.054688 Z M 259.230469 195.613281 C 214.304688 195.613281 192.679688 174.085938 176.890625 158.367188 C 174.035156 154.804688 170.777344 151.660156 167.117188 148.933594 C 163.457031 146.203125 159.511719 143.976562 155.28125 142.253906 C 145.828125 139.9375 133.082031 139.78125 118.445312 158.910156 C 117.875 159.660156 117.242188 160.355469 116.550781 160.996094 C 115.859375 161.640625 115.117188 162.214844 114.328125 162.730469 C 113.535156 163.246094 112.707031 163.6875 111.839844 164.058594 C 110.972656 164.429688 110.082031 164.726562 109.164062 164.945312 C 108.246094 165.164062 107.316406 165.304688 106.375 165.363281 C 105.433594 165.421875 104.496094 165.402344 103.558594 165.296875 C 102.621094 165.195312 101.699219 165.015625 100.792969 164.753906 C 99.882812 164.496094 99.007812 164.160156 98.15625 163.75 C 97.308594 163.339844 96.5 162.859375 95.734375 162.308594 C 94.96875 161.761719 94.253906 161.148438 93.589844 160.476562 C 92.929688 159.804688 92.328125 159.082031 91.792969 158.308594 C 91.253906 157.53125 90.785156 156.71875 90.390625 155.863281 C 89.992188 155.007812 89.667969 154.125 89.421875 153.214844 C 89.175781 152.304688 89.007812 151.378906 88.921875 150.441406 C 88.835938 149.503906 88.828125 148.5625 88.902344 147.625 C 88.972656 146.683594 89.128906 145.757812 89.359375 144.84375 C 101.511719 97.179688 133.648438 71.980469 182.292969 71.980469 C 227.214844 71.980469 248.824219 93.496094 264.605469 109.203125 C 267.464844 112.769531 270.726562 115.917969 274.390625 118.652344 C 278.054688 121.386719 282.003906 123.617188 286.238281 125.339844 C 295.703125 127.648438 308.441406 127.8125 323.074219 108.683594 C 323.644531 107.933594 324.277344 107.238281 324.96875 106.597656 C 325.660156 105.957031 326.402344 105.378906 327.191406 104.867188 C 327.984375 104.351562 328.8125 103.910156 329.679688 103.535156 C 330.546875 103.164062 331.4375 102.871094 332.355469 102.652344 C 333.273438 102.433594 334.203125 102.292969 335.144531 102.234375 C 336.085938 102.175781 337.023438 102.195312 337.960938 102.296875 C 338.898438 102.398438 339.820312 102.582031 340.730469 102.839844 C 341.636719 103.101562 342.511719 103.4375 343.363281 103.847656 C 344.210938 104.257812 345.019531 104.738281 345.785156 105.285156 C 346.550781 105.835938 347.265625 106.445312 347.929688 107.117188 C 348.589844 107.789062 349.191406 108.511719 349.726562 109.289062 C 350.265625 110.0625 350.734375 110.878906 351.132812 111.734375 C 351.527344 112.585938 351.851562 113.46875 352.097656 114.378906 C 352.34375 115.289062 352.511719 116.214844 352.597656 117.15625 C 352.6875 118.09375 352.691406 119.03125 352.621094 119.972656 C 352.546875 120.914062 352.390625 121.839844 352.160156 122.753906 C 340.007812 170.417969 307.871094 195.613281 259.230469 195.613281 Z M 156.246094 108.90625 C 158.566406 109.238281 160.859375 109.679688 163.132812 110.242188 C 166.726562 111.375 170.222656 112.757812 173.621094 114.390625 C 177.015625 116.023438 180.28125 117.886719 183.414062 119.980469 C 186.546875 122.078125 189.511719 124.386719 192.316406 126.902344 C 195.121094 129.421875 197.730469 132.128906 200.148438 135.019531 C 213.808594 148.632812 227.925781 162.644531 259.230469 162.644531 C 268.140625 162.832031 276.820312 161.511719 285.273438 158.6875 C 282.957031 158.359375 280.660156 157.914062 278.386719 157.355469 C 274.792969 156.21875 271.296875 154.835938 267.902344 153.207031 C 264.503906 151.574219 261.238281 149.710938 258.105469 147.613281 C 254.972656 145.519531 252.007812 143.210938 249.203125 140.691406 C 246.398438 138.171875 243.789062 135.46875 241.371094 132.578125 C 227.074219 118.359375 213.597656 104.949219 182.292969 104.949219 C 173.382812 104.765625 164.699219 106.082031 156.246094 108.90625 Z M 156.246094 108.90625 " fill-opacity="1" fill-rule="nonzero"/></g></svg>