<svg xmlns="http://www.w3.org/2000/svg" xmlns:xlink="http://www.w3.org/1999/xlink" width="500" zoomAndPan="magnify" viewBox="0 0 375 374.999991" height="500" preserveAspectRatio="xMidYMid meet" version="1.0"><defs><clipPath id="8ea8a8e256"><path d="M 18.925781 49.574219 L 356.425781 49.574219 L 356.425781 203 L 18.925781 203 Z M 18.925781 49.574219 " clip-rule="nonzero"/></clipPath><clipPath id="197f9af2e3"><path d="M 18.925781 172 L 356.425781 172 L 356.425781 325.574219 L 18.925781 325.574219 Z M 18.925781 172 " clip-rule="nonzero"/></clipPath></defs><g clip-path="url(#8ea8a8e256)"><path fill="#ffffff" d="M 341.082031 202.90625 C 339.574219 202.90625 338.074219 202.832031 336.574219 202.683594 C 335.074219 202.53125 333.585938 202.3125 332.105469 202.015625 C 330.628906 201.722656 329.171875 201.355469 327.726562 200.917969 C 326.285156 200.480469 324.871094 199.972656 323.476562 199.394531 C 322.085938 198.816406 320.726562 198.171875 319.398438 197.460938 C 318.066406 196.753906 316.777344 195.976562 315.523438 195.140625 C 314.273438 194.304688 313.0625 193.40625 311.898438 192.453125 C 310.734375 191.496094 309.617188 190.484375 308.554688 189.421875 C 307.488281 188.355469 306.476562 187.242188 305.519531 186.078125 C 304.566406 184.914062 303.667969 183.707031 302.832031 182.453125 C 301.992188 181.199219 301.21875 179.910156 300.507812 178.582031 C 299.796875 177.253906 299.152344 175.894531 298.574219 174.503906 C 298 173.113281 297.492188 171.695312 297.050781 170.253906 C 296.613281 168.816406 296.246094 167.355469 295.953125 165.878906 C 295.65625 164.402344 295.433594 162.914062 295.285156 161.414062 C 295.136719 159.917969 295.0625 158.414062 295.058594 156.90625 L 295.058594 95.574219 C 295.058594 94.566406 294.960938 93.570312 294.765625 92.582031 C 294.570312 91.59375 294.277344 90.636719 293.890625 89.707031 C 293.507812 88.777344 293.035156 87.894531 292.476562 87.054688 C 291.914062 86.21875 291.277344 85.445312 290.566406 84.730469 C 289.855469 84.019531 289.078125 83.382812 288.242188 82.824219 C 287.40625 82.265625 286.519531 81.792969 285.589844 81.410156 C 284.660156 81.023438 283.699219 80.730469 282.710938 80.535156 C 281.722656 80.339844 280.726562 80.242188 279.71875 80.242188 L 95.628906 80.242188 C 94.621094 80.242188 93.625 80.339844 92.636719 80.535156 C 91.648438 80.730469 90.6875 81.023438 89.757812 81.410156 C 88.828125 81.792969 87.945312 82.265625 87.105469 82.824219 C 86.269531 83.382812 85.492188 84.019531 84.78125 84.730469 C 84.070312 85.445312 83.433594 86.21875 82.875 87.054688 C 82.3125 87.894531 81.839844 88.777344 81.457031 89.707031 C 81.070312 90.636719 80.78125 91.59375 80.582031 92.582031 C 80.386719 93.570312 80.289062 94.566406 80.289062 95.574219 L 80.289062 156.90625 C 80.285156 158.414062 80.210938 159.917969 80.0625 161.414062 C 79.914062 162.914062 79.691406 164.402344 79.394531 165.878906 C 79.101562 167.355469 78.734375 168.816406 78.296875 170.253906 C 77.859375 171.695312 77.351562 173.113281 76.773438 174.503906 C 76.195312 175.894531 75.550781 177.253906 74.839844 178.582031 C 74.128906 179.910156 73.355469 181.199219 72.519531 182.453125 C 71.679688 183.707031 70.785156 184.914062 69.828125 186.078125 C 68.871094 187.242188 67.859375 188.355469 66.796875 189.421875 C 65.730469 190.484375 64.613281 191.496094 63.449219 192.453125 C 62.285156 193.40625 61.078125 194.304688 59.824219 195.140625 C 58.570312 195.976562 57.28125 196.753906 55.953125 197.460938 C 54.621094 198.171875 53.261719 198.816406 51.871094 199.394531 C 50.480469 199.972656 49.0625 200.480469 47.621094 200.917969 C 46.179688 201.355469 44.71875 201.722656 43.242188 202.015625 C 41.761719 202.3125 40.273438 202.53125 38.777344 202.683594 C 37.277344 202.832031 35.773438 202.90625 34.265625 202.90625 C 33.257812 202.90625 32.261719 202.808594 31.273438 202.613281 C 30.285156 202.417969 29.324219 202.125 28.394531 201.742188 C 27.464844 201.355469 26.582031 200.882812 25.742188 200.324219 C 24.90625 199.765625 24.128906 199.128906 23.417969 198.417969 C 22.707031 197.703125 22.070312 196.929688 21.511719 196.09375 C 20.949219 195.257812 20.476562 194.371094 20.09375 193.441406 C 19.707031 192.511719 19.417969 191.554688 19.21875 190.566406 C 19.023438 189.578125 18.925781 188.582031 18.925781 187.574219 C 18.925781 186.566406 19.023438 185.570312 19.21875 184.582031 C 19.417969 183.59375 19.707031 182.636719 20.09375 181.707031 C 20.476562 180.777344 20.949219 179.894531 21.511719 179.054688 C 22.070312 178.21875 22.707031 177.445312 23.417969 176.730469 C 24.128906 176.019531 24.90625 175.382812 25.742188 174.824219 C 26.582031 174.265625 27.464844 173.792969 28.394531 173.410156 C 29.324219 173.023438 30.285156 172.730469 31.273438 172.535156 C 32.261719 172.339844 33.257812 172.242188 34.265625 172.242188 C 35.273438 172.242188 36.269531 172.144531 37.257812 171.945312 C 38.246094 171.75 39.207031 171.460938 40.136719 171.074219 C 41.066406 170.6875 41.953125 170.214844 42.789062 169.65625 C 43.625 169.097656 44.402344 168.460938 45.113281 167.75 C 45.824219 167.039062 46.460938 166.261719 47.019531 165.425781 C 47.582031 164.589844 48.054688 163.707031 48.4375 162.777344 C 48.824219 161.84375 49.117188 160.886719 49.3125 159.898438 C 49.507812 158.910156 49.605469 157.914062 49.605469 156.90625 L 49.605469 95.574219 C 49.609375 94.066406 49.683594 92.566406 49.832031 91.066406 C 49.980469 89.566406 50.203125 88.082031 50.5 86.601562 C 50.792969 85.125 51.160156 83.667969 51.597656 82.226562 C 52.035156 80.785156 52.542969 79.371094 53.121094 77.976562 C 53.699219 76.585938 54.34375 75.226562 55.054688 73.898438 C 55.765625 72.570312 56.539062 71.28125 57.378906 70.027344 C 58.214844 68.777344 59.109375 67.570312 60.066406 66.40625 C 61.023438 65.242188 62.035156 64.125 63.101562 63.0625 C 64.164062 61.996094 65.28125 60.984375 66.445312 60.03125 C 67.609375 59.074219 68.820312 58.179688 70.070312 57.339844 C 71.324219 56.503906 72.613281 55.730469 73.945312 55.019531 C 75.273438 54.308594 76.632812 53.664062 78.023438 53.089844 C 79.417969 52.511719 80.832031 52.003906 82.273438 51.566406 C 83.714844 51.128906 85.175781 50.761719 86.652344 50.464844 C 88.132812 50.171875 89.621094 49.949219 91.121094 49.800781 C 92.621094 49.652344 94.121094 49.574219 95.628906 49.574219 L 279.71875 49.574219 C 281.226562 49.574219 282.730469 49.652344 284.230469 49.800781 C 285.726562 49.949219 287.21875 50.171875 288.695312 50.464844 C 290.171875 50.761719 291.632812 51.128906 293.074219 51.566406 C 294.515625 52.003906 295.933594 52.511719 297.324219 53.089844 C 298.714844 53.664062 300.078125 54.308594 301.40625 55.019531 C 302.734375 55.730469 304.023438 56.503906 305.277344 57.339844 C 306.53125 58.179688 307.738281 59.074219 308.902344 60.03125 C 310.066406 60.984375 311.183594 61.996094 312.25 63.0625 C 313.3125 64.125 314.324219 65.242188 315.28125 66.40625 C 316.238281 67.570312 317.132812 68.777344 317.972656 70.027344 C 318.808594 71.28125 319.582031 72.570312 320.292969 73.898438 C 321.003906 75.226562 321.648438 76.585938 322.226562 77.976562 C 322.804688 79.371094 323.3125 80.785156 323.75 82.226562 C 324.1875 83.667969 324.554688 85.125 324.851562 86.601562 C 325.144531 88.082031 325.367188 89.566406 325.515625 91.066406 C 325.664062 92.566406 325.742188 94.066406 325.742188 95.574219 L 325.742188 156.90625 C 325.742188 157.914062 325.839844 158.910156 326.035156 159.898438 C 326.234375 160.886719 326.523438 161.84375 326.910156 162.777344 C 327.296875 163.707031 327.769531 164.589844 328.328125 165.425781 C 328.886719 166.261719 329.523438 167.039062 330.234375 167.75 C 330.949219 168.460938 331.722656 169.097656 332.558594 169.65625 C 333.398438 170.214844 334.28125 170.6875 335.210938 171.074219 C 336.144531 171.460938 337.101562 171.75 338.089844 171.945312 C 339.078125 172.144531 340.074219 172.242188 341.082031 172.242188 C 342.089844 172.242188 343.085938 172.339844 344.074219 172.535156 C 345.0625 172.730469 346.023438 173.023438 346.953125 173.410156 C 347.882812 173.792969 348.769531 174.265625 349.605469 174.824219 C 350.441406 175.382812 351.21875 176.019531 351.929688 176.730469 C 352.644531 177.445312 353.277344 178.21875 353.839844 179.054688 C 354.398438 179.894531 354.871094 180.777344 355.253906 181.707031 C 355.640625 182.636719 355.933594 183.59375 356.128906 184.582031 C 356.324219 185.570312 356.421875 186.566406 356.421875 187.574219 C 356.421875 188.582031 356.324219 189.578125 356.128906 190.566406 C 355.933594 191.554688 355.640625 192.511719 355.253906 193.441406 C 354.871094 194.371094 354.398438 195.257812 353.839844 196.09375 C 353.277344 196.929688 352.644531 197.703125 351.929688 198.417969 C 351.21875 199.128906 350.441406 199.765625 349.605469 200.324219 C 348.769531 200.882812 347.882812 201.355469 346.953125 201.742188 C 346.023438 202.125 345.0625 202.417969 344.074219 202.613281 C 343.085938 202.808594 342.089844 202.90625 341.082031 202.90625 Z M 341.082031 202.90625 " fill-opacity="1" fill-rule="nonzero"/></g><g clip-path="url(#197f9af2e3)"><path fill="#ffffff" d="M 279.71875 325.574219 L 95.628906 325.574219 C 94.121094 325.574219 92.621094 325.496094 91.121094 325.347656 C 89.621094 325.199219 88.132812 324.976562 86.652344 324.683594 C 85.175781 324.386719 83.714844 324.023438 82.273438 323.582031 C 80.832031 323.144531 79.417969 322.636719 78.023438 322.0625 C 76.632812 321.484375 75.273438 320.839844 73.945312 320.128906 C 72.613281 319.417969 71.324219 318.644531 70.070312 317.808594 C 68.820312 316.972656 67.609375 316.074219 66.445312 315.117188 C 65.28125 314.164062 64.164062 313.152344 63.101562 312.089844 C 62.035156 311.023438 61.023438 309.910156 60.066406 308.746094 C 59.109375 307.578125 58.214844 306.371094 57.378906 305.121094 C 56.539062 303.867188 55.765625 302.578125 55.054688 301.25 C 54.34375 299.921875 53.699219 298.5625 53.121094 297.171875 C 52.542969 295.78125 52.035156 294.363281 51.597656 292.921875 C 51.160156 291.480469 50.792969 290.023438 50.5 288.546875 C 50.203125 287.070312 49.980469 285.582031 49.832031 284.082031 C 49.683594 282.582031 49.609375 281.082031 49.605469 279.574219 L 49.605469 218.242188 C 49.605469 217.234375 49.507812 216.238281 49.3125 215.25 C 49.117188 214.261719 48.824219 213.304688 48.4375 212.375 C 48.054688 211.441406 47.582031 210.558594 47.019531 209.722656 C 46.460938 208.886719 45.824219 208.109375 45.113281 207.398438 C 44.402344 206.6875 43.625 206.050781 42.789062 205.492188 C 41.953125 204.933594 41.066406 204.460938 40.136719 204.074219 C 39.207031 203.691406 38.246094 203.398438 37.257812 203.203125 C 36.269531 203.007812 35.273438 202.90625 34.265625 202.90625 C 33.257812 202.90625 32.261719 202.808594 31.273438 202.613281 C 30.285156 202.417969 29.324219 202.125 28.394531 201.742188 C 27.464844 201.355469 26.582031 200.882812 25.742188 200.324219 C 24.90625 199.765625 24.128906 199.128906 23.417969 198.417969 C 22.707031 197.703125 22.070312 196.929688 21.511719 196.09375 C 20.949219 195.257812 20.476562 194.371094 20.09375 193.441406 C 19.707031 192.511719 19.417969 191.554688 19.21875 190.566406 C 19.023438 189.578125 18.925781 188.582031 18.925781 187.574219 C 18.925781 186.566406 19.023438 185.570312 19.21875 184.582031 C 19.417969 183.59375 19.707031 182.636719 20.09375 181.707031 C 20.476562 180.777344 20.949219 179.894531 21.511719 179.054688 C 22.070312 178.21875 22.707031 177.445312 23.417969 176.730469 C 24.128906 176.019531 24.90625 175.382812 25.742188 174.824219 C 26.582031 174.265625 27.464844 173.792969 28.394531 173.410156 C 29.324219 173.023438 30.285156 172.730469 31.273438 172.535156 C 32.261719 172.339844 33.257812 172.242188 34.265625 172.242188 C 35.773438 172.242188 37.277344 172.316406 38.777344 172.464844 C 40.273438 172.617188 41.761719 172.835938 43.242188 173.132812 C 44.71875 173.425781 46.179688 173.792969 47.621094 174.230469 C 49.0625 174.671875 50.480469 175.179688 51.871094 175.753906 C 53.261719 176.332031 54.621094 176.976562 55.953125 177.6875 C 57.28125 178.398438 58.570312 179.171875 59.824219 180.007812 C 61.078125 180.84375 62.285156 181.742188 63.449219 182.695312 C 64.613281 183.652344 65.730469 184.664062 66.796875 185.726562 C 67.859375 186.792969 68.871094 187.90625 69.828125 189.070312 C 70.785156 190.234375 71.679688 191.445312 72.519531 192.695312 C 73.355469 193.949219 74.128906 195.238281 74.839844 196.566406 C 75.550781 197.894531 76.195312 199.253906 76.773438 200.644531 C 77.351562 202.035156 77.859375 203.453125 78.296875 204.894531 C 78.734375 206.335938 79.101562 207.792969 79.394531 209.269531 C 79.691406 210.746094 79.914062 212.234375 80.0625 213.734375 C 80.210938 215.234375 80.285156 216.734375 80.289062 218.242188 L 80.289062 279.574219 C 80.289062 280.582031 80.386719 281.578125 80.582031 282.566406 C 80.78125 283.554688 81.070312 284.511719 81.457031 285.441406 C 81.839844 286.371094 82.3125 287.257812 82.875 288.09375 C 83.433594 288.929688 84.070312 289.703125 84.78125 290.417969 C 85.492188 291.128906 86.269531 291.765625 87.105469 292.324219 C 87.945312 292.882812 88.828125 293.355469 89.757812 293.742188 C 90.6875 294.125 91.648438 294.417969 92.636719 294.613281 C 93.625 294.808594 94.621094 294.90625 95.628906 294.90625 L 279.71875 294.90625 C 280.726562 294.90625 281.722656 294.808594 282.710938 294.613281 C 283.699219 294.417969 284.660156 294.125 285.589844 293.742188 C 286.519531 293.355469 287.40625 292.882812 288.242188 292.324219 C 289.078125 291.765625 289.855469 291.128906 290.566406 290.417969 C 291.277344 289.703125 291.914062 288.929688 292.476562 288.09375 C 293.035156 287.257812 293.507812 286.371094 293.890625 285.441406 C 294.277344 284.511719 294.570312 283.554688 294.765625 282.566406 C 294.960938 281.578125 295.058594 280.582031 295.058594 279.574219 L 295.058594 218.242188 C 295.0625 216.734375 295.136719 215.234375 295.285156 213.734375 C 295.433594 212.234375 295.65625 210.746094 295.953125 209.269531 C 296.246094 207.792969 296.613281 206.335938 297.050781 204.894531 C 297.492188 203.453125 298 202.035156 298.574219 200.644531 C 299.152344 199.253906 299.796875 197.894531 300.507812 196.566406 C 301.21875 195.238281 301.992188 193.949219 302.832031 192.695312 C 303.667969 191.445312 304.566406 190.234375 305.519531 189.070312 C 306.476562 187.90625 307.488281 186.792969 308.554688 185.726562 C 309.617188 184.664062 310.734375 183.652344 311.898438 182.695312 C 313.0625 181.742188 314.273438 180.84375 315.523438 180.007812 C 316.777344 179.171875 318.066406 178.398438 319.398438 177.6875 C 320.726562 176.976562 322.085938 176.332031 323.476562 175.753906 C 324.871094 175.179688 326.285156 174.671875 327.726562 174.230469 C 329.171875 173.792969 330.628906 173.425781 332.105469 173.132812 C 333.585938 172.835938 335.074219 172.617188 336.574219 172.464844 C 338.074219 172.316406 339.574219 172.242188 341.082031 172.242188 C 342.089844 172.242188 343.085938 172.339844 344.074219 172.535156 C 345.0625 172.730469 346.023438 173.023438 346.953125 173.410156 C 347.882812 173.792969 348.769531 174.265625 349.605469 174.824219 C 350.441406 175.382812 351.21875 176.019531 351.929688 176.730469 C 352.644531 177.445312 353.277344 178.21875 353.839844 179.054688 C 354.398438 179.894531 354.871094 180.777344 355.253906 181.707031 C 355.640625 182.636719 355.933594 183.59375 356.128906 184.582031 C 356.324219 185.570312 356.421875 186.566406 356.421875 187.574219 C 356.421875 188.582031 356.324219 189.578125 356.128906 190.566406 C 355.933594 191.554688 355.640625 192.511719 355.253906 193.441406 C 354.871094 194.371094 354.398438 195.257812 353.839844 196.09375 C 353.277344 196.929688 352.644531 197.703125 351.929688 198.417969 C 351.21875 199.128906 350.441406 199.765625 349.605469 200.324219 C 348.769531 200.882812 347.882812 201.355469 346.953125 201.742188 C 346.023438 202.125 345.0625 202.417969 344.074219 202.613281 C 343.085938 202.808594 342.089844 202.90625 341.082031 202.90625 C 340.074219 202.90625 339.078125 203.007812 338.089844 203.203125 C 337.101562 203.398438 336.144531 203.691406 335.210938 204.074219 C 334.28125 204.460938 333.398438 204.933594 332.558594 205.492188 C 331.722656 206.050781 330.949219 206.6875 330.234375 207.398438 C 329.523438 208.109375 328.886719 208.886719 328.328125 209.722656 C 327.769531 210.558594 327.296875 211.441406 326.910156 212.375 C 326.523438 213.304688 326.234375 214.261719 326.035156 215.25 C 325.839844 216.238281 325.742188 217.234375 325.742188 218.242188 L 325.742188 279.574219 C 325.742188 281.082031 325.664062 282.582031 325.515625 284.082031 C 325.367188 285.582031 325.144531 287.070312 324.851562 288.546875 C 324.554688 290.023438 324.1875 291.480469 323.75 292.921875 C 323.3125 294.363281 322.804688 295.78125 322.226562 297.171875 C 321.648438 298.5625 321.003906 299.921875 320.292969 301.25 C 319.582031 302.578125 318.808594 303.867188 317.972656 305.121094 C 317.132812 306.371094 316.238281 307.578125 315.28125 308.746094 C 314.324219 309.910156 313.3125 311.023438 312.25 312.089844 C 311.183594 313.152344 310.066406 314.164062 308.902344 315.117188 C 307.738281 316.074219 306.53125 316.972656 305.277344 317.808594 C 304.023438 318.644531 302.734375 319.417969 301.40625 320.128906 C 300.078125 320.839844 298.714844 321.484375 297.324219 322.0625 C 295.933594 322.636719 294.515625 323.144531 293.074219 323.582031 C 291.632812 324.023438 290.171875 324.386719 288.695312 324.683594 C 287.21875 324.976562 285.726562 325.199219 284.230469 325.347656 C 282.730469 325.496094 281.226562 325.574219 279.71875 325.574219 Z M 279.71875 325.574219 " fill-opacity="1" fill-rule="nonzero"/></g><path fill="#ffffff" d="M 203.015625 264.242188 L 141.652344 264.242188 C 140.644531 264.242188 139.648438 264.144531 138.660156 263.945312 C 137.671875 263.75 136.710938 263.460938 135.78125 263.074219 C 134.851562 262.6875 133.964844 262.214844 133.128906 261.65625 C 132.292969 261.097656 131.515625 260.460938 130.804688 259.75 C 130.09375 259.039062 129.457031 258.261719 128.894531 257.425781 C 128.335938 256.589844 127.863281 255.707031 127.480469 254.777344 C 127.09375 253.84375 126.800781 252.886719 126.605469 251.898438 C 126.410156 250.910156 126.3125 249.914062 126.3125 248.90625 L 126.3125 126.242188 C 126.3125 125.234375 126.410156 124.238281 126.605469 123.25 C 126.800781 122.261719 127.09375 121.304688 127.480469 120.375 C 127.863281 119.441406 128.335938 118.558594 128.894531 117.722656 C 129.457031 116.886719 130.09375 116.109375 130.804688 115.398438 C 131.515625 114.6875 132.292969 114.050781 133.128906 113.492188 C 133.964844 112.933594 134.851562 112.460938 135.78125 112.074219 C 136.710938 111.691406 137.671875 111.398438 138.660156 111.203125 C 139.648438 111.007812 140.644531 110.90625 141.652344 110.90625 L 195.34375 110.90625 C 197.441406 110.910156 199.527344 111.050781 201.605469 111.335938 C 203.679688 111.621094 205.730469 112.046875 207.746094 112.613281 C 209.765625 113.179688 211.738281 113.878906 213.660156 114.714844 C 215.582031 115.546875 217.441406 116.507812 219.230469 117.597656 C 221.023438 118.6875 222.734375 119.890625 224.359375 121.210938 C 225.984375 122.535156 227.515625 123.960938 228.945312 125.492188 C 230.378906 127.023438 231.699219 128.640625 232.910156 130.351562 C 234.121094 132.0625 235.207031 133.851562 236.175781 135.710938 C 237.140625 137.570312 237.976562 139.484375 238.679688 141.460938 C 239.382812 143.433594 239.949219 145.445312 240.378906 147.496094 C 240.808594 149.546875 241.09375 151.617188 241.242188 153.707031 C 241.386719 155.796875 241.390625 157.890625 241.25 159.980469 C 241.109375 162.070312 240.828125 164.140625 240.40625 166.195312 C 239.980469 168.246094 239.421875 170.261719 238.722656 172.234375 C 238.023438 174.210938 237.195312 176.128906 236.234375 177.992188 C 235.273438 179.855469 234.1875 181.644531 232.984375 183.359375 C 234.753906 184.878906 236.398438 186.527344 237.917969 188.296875 C 239.441406 190.070312 240.816406 191.945312 242.050781 193.925781 C 243.285156 195.910156 244.363281 197.972656 245.28125 200.117188 C 246.203125 202.261719 246.957031 204.464844 247.539062 206.726562 C 248.125 208.984375 248.535156 211.277344 248.769531 213.597656 C 249.007812 215.921875 249.066406 218.246094 248.945312 220.578125 C 248.828125 222.910156 248.53125 225.21875 248.0625 227.503906 C 247.59375 229.789062 246.953125 232.027344 246.140625 234.214844 C 245.332031 236.40625 244.359375 238.519531 243.226562 240.5625 C 242.09375 242.601562 240.8125 244.546875 239.382812 246.390625 C 237.953125 248.238281 236.390625 249.964844 234.699219 251.574219 C 233.007812 253.179688 231.203125 254.652344 229.289062 255.988281 C 227.371094 257.320312 225.367188 258.503906 223.269531 259.53125 C 221.171875 260.558594 219.011719 261.425781 216.785156 262.125 C 214.554688 262.824219 212.289062 263.351562 209.980469 263.707031 C 207.671875 264.0625 205.351562 264.238281 203.015625 264.242188 Z M 156.992188 233.574219 L 203.015625 233.574219 C 204.023438 233.574219 205.019531 233.476562 206.007812 233.28125 C 206.996094 233.082031 207.957031 232.792969 208.886719 232.40625 C 209.816406 232.023438 210.699219 231.550781 211.539062 230.992188 C 212.375 230.429688 213.152344 229.796875 213.863281 229.082031 C 214.574219 228.371094 215.210938 227.597656 215.769531 226.761719 C 216.332031 225.921875 216.804688 225.039062 217.1875 224.109375 C 217.574219 223.179688 217.863281 222.21875 218.0625 221.234375 C 218.257812 220.246094 218.355469 219.246094 218.355469 218.242188 C 218.355469 217.234375 218.257812 216.238281 218.0625 215.25 C 217.863281 214.261719 217.574219 213.304688 217.1875 212.375 C 216.804688 211.441406 216.332031 210.558594 215.769531 209.722656 C 215.210938 208.886719 214.574219 208.109375 213.863281 207.398438 C 213.152344 206.6875 212.375 206.050781 211.539062 205.492188 C 210.699219 204.933594 209.816406 204.460938 208.886719 204.074219 C 207.957031 203.691406 206.996094 203.398438 206.007812 203.203125 C 205.019531 203.007812 204.023438 202.90625 203.015625 202.90625 L 156.992188 202.90625 Z M 156.992188 172.242188 L 195.34375 172.242188 C 196.351562 172.242188 197.351562 172.144531 198.335938 171.945312 C 199.324219 171.75 200.285156 171.460938 201.214844 171.074219 C 202.144531 170.6875 203.03125 170.214844 203.867188 169.65625 C 204.707031 169.097656 205.480469 168.460938 206.191406 167.75 C 206.90625 167.039062 207.539062 166.261719 208.101562 165.425781 C 208.660156 164.589844 209.132812 163.707031 209.519531 162.777344 C 209.902344 161.84375 210.195312 160.886719 210.390625 159.898438 C 210.585938 158.910156 210.6875 157.914062 210.6875 156.90625 C 210.6875 155.902344 210.585938 154.902344 210.390625 153.917969 C 210.195312 152.929688 209.902344 151.96875 209.519531 151.039062 C 209.132812 150.109375 208.660156 149.226562 208.101562 148.390625 C 207.539062 147.550781 206.90625 146.777344 206.191406 146.066406 C 205.480469 145.355469 204.707031 144.71875 203.867188 144.160156 C 203.03125 143.597656 202.144531 143.125 201.214844 142.742188 C 200.285156 142.355469 199.324219 142.066406 198.335938 141.867188 C 197.351562 141.671875 196.351562 141.574219 195.34375 141.574219 L 156.992188 141.574219 Z M 156.992188 172.242188 " fill-opacity="1" fill-rule="nonzero"/></svg>