<svg xmlns="http://www.w3.org/2000/svg" xmlns:xlink="http://www.w3.org/1999/xlink" width="500" zoomAndPan="magnify" viewBox="0 0 375 374.999991" height="500" preserveAspectRatio="xMidYMid meet" version="1.0"><defs><clipPath id="46d24f4a6f"><path d="M 103 226 L 156 226 L 156 303.773438 L 103 303.773438 Z M 103 226 " clip-rule="nonzero"/></clipPath></defs><g clip-path="url(#46d24f4a6f)"><path fill="#ffffff" d="M 109.476562 295.984375 C 107.394531 295.984375 105.542969 295.855469 103.976562 295.613281 L 103.976562 302.53125 C 107.195312 303.816406 109.863281 304.457031 112.042969 304.457031 C 120.210938 304.457031 127.738281 299.464844 134.609375 289.4375 C 143.390625 276.457031 150.488281 255.617188 155.878906 226.976562 L 143.332031 226.976562 C 141.09375 244.5625 137.132812 260.851562 131.429688 275.746094 C 131.828125 272.761719 130.847656 267.527344 128.507812 260.027344 L 118.144531 226.976562 L 105.171875 226.976562 L 119.628906 271.179688 C 121.808594 277.8125 122.90625 282.234375 122.90625 284.402344 C 122.90625 287.527344 121.507812 290.351562 118.699219 292.875 C 116.363281 294.929688 113.296875 295.984375 109.476562 295.984375 Z M 109.476562 295.984375 " fill-opacity="1" fill-rule="nonzero"/></g><path fill="#ffffff" d="M 294.082031 206.679688 L 294.082031 284.117188 L 331.574219 284.117188 L 331.574219 274.589844 L 306.699219 274.589844 L 306.699219 206.679688 Z M 294.082031 206.679688 " fill-opacity="1" fill-rule="nonzero"/><path fill="#ffffff" d="M 31.1875 222.355469 L 31.332031 222.355469 L 51.289062 284.117188 L 61.335938 284.117188 L 81.4375 222.355469 L 81.550781 222.355469 C 83.648438 241.683594 84.972656 262.238281 85.402344 284.117188 L 98.65625 284.117188 C 98.03125 260.722656 96.007812 234.894531 92.558594 206.679688 L 76.945312 206.679688 L 57.746094 263.589844 L 57.632812 263.589844 L 38.601562 206.679688 L 22.207031 206.679688 C 19.101562 230.757812 17.148438 256.589844 16.363281 284.117188 L 28.410156 284.117188 C 28.792969 261.464844 29.71875 240.882812 31.1875 222.355469 Z M 31.1875 222.355469 " fill-opacity="1" fill-rule="nonzero"/><path fill="#ffffff" d="M 282.636719 243.949219 C 282.636719 218.332031 272.398438 205.496094 251.914062 205.496094 C 241.878906 205.496094 234.039062 208.746094 228.394531 215.25 C 222.265625 222.367188 219.183594 232.839844 219.183594 246.6875 C 219.183594 260.296875 221.894531 270.296875 227.367188 276.65625 C 232.355469 282.40625 239.871094 285.273438 249.933594 285.273438 C 253.695312 285.273438 257.148438 284.816406 260.269531 283.902344 L 279.15625 294.714844 L 284.289062 286.015625 L 284.246094 286.015625 L 269.761719 279.011719 C 271.046875 277.941406 272.285156 276.800781 273.398438 275.515625 C 279.570312 268.414062 282.636719 257.886719 282.636719 243.949219 Z M 251.230469 275.6875 C 244.886719 275.6875 240.253906 273.347656 237.289062 268.683594 L 237.316406 268.613281 C 234.109375 263.578125 232.515625 255.445312 232.515625 244.308594 C 232.515625 224.792969 238.558594 215.039062 250.617188 215.039062 C 256.933594 215.039062 261.59375 217.375 264.546875 222.042969 C 267.738281 227.105469 269.335938 235.148438 269.335938 246.175781 C 269.335938 265.832031 263.289062 275.6875 251.230469 275.6875 Z M 251.230469 275.6875 " fill-opacity="1" fill-rule="nonzero"/><path fill="#ffffff" d="M 204.53125 246.347656 C 204.53125 246.347656 193.210938 239.96875 187.609375 236.960938 C 181.453125 233.59375 178.117188 229.644531 178.117188 225.066406 C 178.117188 222.070312 179.46875 219.628906 181.652344 217.71875 C 183.816406 215.777344 186.941406 214.835938 190.972656 214.835938 C 195.949219 214.835938 201.011719 215.921875 206.140625 218.0625 L 209.179688 211.398438 C 203.191406 207.5625 196.519531 205.667969 189.222656 205.667969 C 182.09375 205.667969 176.320312 207.578125 171.828125 211.472656 C 167.367188 215.324219 165.128906 220.359375 165.128906 226.664062 C 165.128906 234.238281 168.125 238.84375 174.140625 243.152344 C 174.140625 243.152344 185.1875 249.371094 190.71875 252.351562 C 196.675781 255.648438 199.957031 259.570312 199.957031 264.191406 C 199.957031 267.84375 198.359375 270.738281 195.679688 272.804688 C 192.96875 274.859375 189.25 275.886719 184.515625 275.886719 C 179.425781 275.886719 173.796875 274.375 167.554688 271.292969 L 164.175781 277.953125 C 171.429688 282.761719 178.859375 285.171875 186.597656 285.171875 C 194.878906 285.171875 201.421875 283.074219 206.328125 278.867188 C 211.230469 274.675781 213.683594 269.269531 213.683594 262.679688 L 213.769531 262.722656 C 213.769531 255.175781 210.703125 250.625 204.53125 246.347656 Z M 204.53125 246.347656 " fill-opacity="1" fill-rule="nonzero"/><path fill="#ffffff" d="M 250.21875 99.34375 C 248.578125 99.34375 247.46875 99.542969 246.3125 99.800781 L 246.3125 99.984375 L 246.511719 99.984375 C 247.28125 101.441406 248.59375 102.511719 249.5625 103.808594 C 250.332031 105.304688 250.988281 106.804688 251.757812 108.289062 L 251.957031 108.074219 C 253.296875 107.144531 253.953125 105.664062 253.953125 103.410156 C 253.382812 102.753906 253.296875 102.097656 252.8125 101.453125 C 252.242188 100.511719 251.015625 100.058594 250.246094 99.316406 Z M 250.21875 99.34375 " fill-opacity="1" fill-rule="nonzero"/><path fill="#ffffff" d="M 354.140625 205.351562 C 351.375 201.714844 347.9375 198.535156 344.230469 195.894531 C 341.179688 193.855469 334.511719 190.988281 333.253906 187.566406 L 333.070312 187.367188 C 335.152344 187.179688 337.632812 186.4375 339.628906 185.882812 C 342.863281 185.039062 345.828125 185.226562 349.179688 184.398438 C 350.6875 184.027344 352.214844 183.558594 353.738281 183.085938 L 353.738281 182.246094 C 352.03125 180.5625 350.746094 178.28125 348.980469 176.710938 C 344.132812 172.574219 338.757812 168.566406 333.242188 165.183594 C 330.246094 163.300781 326.457031 162.105469 323.304688 160.507812 C 322.164062 159.949219 320.253906 159.664062 319.597656 158.722656 C 317.886719 156.683594 316.890625 153.960938 315.679688 151.519531 C 312.941406 146.371094 310.261719 140.664062 307.882812 135.230469 C 306.171875 131.566406 305.128906 127.914062 303.035156 124.546875 C 293.199219 108.628906 282.550781 98.972656 266.171875 89.542969 C 262.648438 87.589844 258.429688 86.75 253.96875 85.707031 C 251.585938 85.59375 249.207031 85.421875 246.839844 85.324219 C 245.273438 84.667969 243.761719 82.882812 242.421875 82.027344 C 237.003906 78.660156 222.976562 71.386719 218.984375 81.015625 C 216.417969 87.089844 222.792969 93.082031 225 96.164062 C 226.640625 98.300781 228.707031 100.757812 229.847656 103.167969 C 230.519531 104.792969 230.703125 106.460938 231.375 108.160156 C 232.882812 112.28125 234.324219 116.859375 236.320312 120.726562 C 237.359375 122.679688 238.5 124.746094 239.839844 126.503906 C 240.609375 127.527344 241.921875 128 242.222656 129.683594 C 240.882812 131.59375 240.796875 134.363281 240.027344 136.6875 C 236.605469 147.285156 237.945312 160.394531 242.792969 168.195312 C 244.316406 170.519531 247.953125 175.667969 252.8125 173.699219 C 257.089844 172.019531 256.148438 166.699219 257.375 162.003906 C 257.660156 160.878906 257.476562 160.136719 258.058594 159.378906 L 258.058594 159.59375 C 259.398438 162.234375 260.738281 164.730469 261.964844 167.367188 C 264.902344 171.960938 270.035156 176.726562 274.324219 179.90625 C 276.605469 181.589844 278.414062 184.5 281.265625 185.539062 L 281.265625 185.253906 L 281.054688 185.253906 C 280.441406 184.441406 279.628906 184.054688 278.859375 183.386719 C 277.148438 181.703125 275.222656 179.648438 273.867188 177.78125 C 269.875 172.503906 266.355469 166.710938 263.21875 160.722656 C 261.652344 157.78125 260.339844 154.617188 259.085938 151.71875 C 258.515625 150.609375 258.515625 148.925781 257.558594 148.355469 C 256.132812 150.394531 254.039062 152.175781 253 154.703125 C 251.1875 158.738281 251.003906 163.6875 250.320312 168.851562 C 249.933594 168.949219 250.117188 168.851562 249.933594 169.050781 C 246.882812 168.324219 245.84375 165.214844 244.703125 162.605469 C 241.851562 155.957031 241.378906 145.273438 243.847656 137.597656 C 244.515625 135.644531 247.367188 129.453125 246.226562 127.570312 C 245.628906 125.789062 243.746094 124.777344 242.707031 123.335938 C 241.464844 121.59375 240.140625 119.339844 239.285156 117.359375 C 237.003906 112.125 235.863281 106.320312 233.382812 101.082031 C 232.242188 98.660156 230.246094 96.121094 228.621094 93.894531 C 226.8125 91.371094 224.816406 89.601562 223.375 86.605469 C 222.90625 85.578125 222.234375 83.882812 222.992188 82.769531 C 223.191406 82.011719 223.589844 81.714844 224.332031 81.515625 C 225.585938 80.5 229.105469 81.828125 230.347656 82.382812 C 233.867188 83.78125 236.832031 85.09375 239.785156 87.0625 C 241.125 87.988281 242.5625 89.757812 244.273438 90.230469 L 246.269531 90.230469 C 249.320312 90.886719 252.757812 90.429688 255.605469 91.257812 C 260.667969 92.855469 265.230469 95.179688 269.320312 97.703125 C 281.808594 105.492188 292.070312 116.53125 299.042969 129.710938 C 300.183594 131.863281 300.683594 133.847656 301.722656 136.085938 C 303.71875 140.707031 306.183594 145.375 308.207031 149.835938 C 310.203125 154.246094 312.128906 158.753906 314.996094 162.402344 C 316.417969 164.359375 322.152344 165.386719 324.714844 166.414062 C 326.613281 167.253906 329.5625 168.023438 331.273438 169.050781 C 334.550781 171.003906 337.746094 173.257812 340.824219 175.414062 C 342.394531 176.480469 347.140625 178.820312 347.425781 180.703125 C 339.796875 180.503906 333.882812 181.261719 328.9375 183.34375 C 327.511719 183.898438 325.230469 183.898438 325.03125 185.683594 C 325.8125 186.425781 325.929688 187.636719 326.597656 188.679688 C 327.738281 190.546875 329.707031 193.058594 331.53125 194.382812 C 333.527344 195.925781 335.523438 197.40625 337.617188 198.71875 C 341.324219 200.960938 345.527344 202.285156 349.164062 204.539062 C 351.230469 205.851562 353.339844 207.519531 355.4375 208.917969 C 356.476562 209.617188 357.148438 210.886719 358.488281 211.328125 L 358.488281 211.058594 C 357.832031 210.214844 357.632812 209.003906 356.988281 208.0625 C 356.035156 207.121094 355.078125 206.28125 354.140625 205.351562 Z M 354.140625 205.351562 " fill-opacity="1" fill-rule="nonzero"/></svg>