<svg xmlns="http://www.w3.org/2000/svg" xmlns:xlink="http://www.w3.org/1999/xlink" width="500" zoomAndPan="magnify" viewBox="0 0 375 374.999991" height="500" preserveAspectRatio="xMidYMid meet" version="1.0"><defs><clipPath id="50b3dd19f7"><path d="M 21.140625 41 L 354.140625 41 L 354.140625 333 L 21.140625 333 Z M 21.140625 41 " clip-rule="nonzero"/></clipPath></defs><path fill="#ffffff" d="M 187.640625 156.886719 C 171.1875 156.886719 157.851562 170.195312 157.851562 186.617188 C 157.851562 203.042969 171.1875 216.347656 187.640625 216.347656 C 204.097656 216.347656 217.433594 203.042969 217.433594 186.617188 C 217.433594 170.195312 204.097656 156.886719 187.640625 156.886719 Z M 187.640625 156.886719 " fill-opacity="1" fill-rule="nonzero"/><g clip-path="url(#50b3dd19f7)"><path fill="#ffffff" d="M 83.773438 239.265625 C 86.703125 240.234375 89.628906 241.21875 92.625 242.0625 C 91.65625 245.953125 90.808594 249.789062 90.015625 253.75 C 83.191406 289.78125 88.519531 318.335938 105.558594 328.136719 C 123.125 338.261719 152.648438 327.875 181.398438 302.757812 C 183.671875 300.75 185.949219 298.671875 188.226562 296.457031 C 191.082031 299.253906 194.078125 301.910156 197.0625 304.5 C 224.894531 328.386719 252.410156 338.054688 269.394531 328.261719 C 286.960938 318.140625 292.675781 287.441406 285.265625 250.054688 C 284.683594 247.199219 284.03125 244.277344 283.308594 241.289062 C 285.390625 240.707031 287.402344 240.054688 289.429688 239.40625 C 326.960938 227.011719 354.140625 206.945312 354.140625 186.367188 C 354.140625 166.707031 328.515625 147.625 293.132812 135.480469 L 293.132812 135.464844 C 289.625 134.304688 286.113281 133.195312 282.601562 132.15625 C 283.183594 129.761719 283.710938 127.351562 284.226562 124.957031 C 292.230469 86.265625 286.960938 55.191406 269.199219 44.933594 C 252.089844 35.128906 224.1875 45.320312 195.96875 69.859375 C 193.164062 72.253906 190.445312 74.789062 187.835938 77.320312 C 186.074219 75.632812 184.257812 73.941406 182.4375 72.324219 C 152.84375 46.09375 123.191406 35.058594 105.433594 45.390625 C 88.394531 55.261719 83.316406 84.535156 90.476562 121.121094 C 91.195312 124.761719 91.972656 128.320312 92.875 131.960938 C 88.714844 133.125 84.621094 134.425781 80.777344 135.796875 C 46.046875 147.804688 21.140625 166.761719 21.140625 186.367188 C 21.140625 206.628906 47.671875 226.929688 83.773438 239.265625 Z M 172.226562 292.148438 C 161.5 301.953125 149.070312 309.734375 135.542969 315.066406 C 128.328125 318.5 120 318.832031 112.578125 315.910156 C 102.242188 309.941406 97.941406 287.023438 103.796875 256.1875 C 104.515625 252.558594 105.292969 248.917969 106.195312 245.34375 C 120.765625 248.460938 135.457031 250.605469 150.359375 251.699219 C 158.949219 263.84375 168.371094 275.460938 178.457031 286.359375 C 176.375 288.367188 174.292969 290.320312 172.214844 292.136719 Z M 254.824219 170.265625 C 251.773438 164.546875 248.652344 158.839844 245.390625 153.261719 C 242.199219 147.75 238.882812 142.292969 235.441406 136.90625 C 245.917969 138.207031 255.933594 139.953125 265.300781 142.097656 C 262.304688 151.710938 258.792969 161.054688 254.824219 170.265625 Z M 254.949219 202.585938 C 259.113281 212 262.761719 221.542969 265.9375 231.34375 C 255.851562 233.617188 245.652344 235.375 235.371094 236.539062 C 238.882812 231.082031 242.199219 225.5 245.460938 219.921875 C 248.773438 214.203125 251.898438 208.429688 254.949219 202.585938 Z M 247.429688 186.4375 C 243.074219 195.398438 238.382812 204.21875 233.386719 212.914062 C 228.449219 221.542969 223.175781 229.917969 217.652344 238.226562 C 207.96875 238.949219 197.882812 239.265625 187.667969 239.265625 C 177.457031 239.265625 167.578125 238.949219 158.019531 238.351562 C 152.359375 230.113281 147.03125 221.664062 142.019531 213.039062 C 137.011719 204.414062 132.390625 195.648438 128.035156 186.6875 L 128.007812 186.6875 C 132.292969 177.726562 136.984375 168.964844 141.925781 160.335938 C 146.863281 151.710938 152.207031 143.332031 157.796875 135.09375 C 167.550781 134.371094 177.5 133.984375 187.65625 133.984375 C 197.8125 133.984375 207.816406 134.371094 217.515625 135.09375 C 223.039062 143.277344 228.308594 151.640625 233.320312 160.210938 C 238.328125 168.78125 243.003906 177.546875 247.429688 186.4375 Z M 129.8125 153.382812 C 126.621094 158.894531 123.496094 164.53125 120.570312 170.25 C 116.476562 160.585938 113.023438 151.113281 110.164062 141.960938 C 119.53125 139.882812 129.476562 138.195312 139.816406 136.890625 C 136.386719 142.277344 133.003906 147.789062 129.8125 153.382812 Z M 120.585938 203.097656 C 123.582031 208.816406 126.632812 214.464844 129.878906 220.046875 C 133.195312 225.695312 136.582031 231.34375 140.160156 236.855469 C 130.019531 235.75 119.933594 234.128906 109.984375 231.980469 C 112.84375 222.636719 116.421875 212.96875 120.585938 203.097656 Z M 188.167969 276.363281 C 181.535156 269.230469 174.90625 261.324219 168.46875 252.808594 C 174.710938 253.070312 181.148438 253.195312 187.65625 253.195312 C 194.359375 253.195312 200.921875 253.070312 207.429688 252.738281 C 201.449219 260.976562 195.007812 268.84375 188.167969 276.363281 Z M 273.179688 295.859375 C 272.585938 303.765625 268.6875 311.160156 262.441406 316.160156 C 252.105469 322.128906 230.058594 314.347656 206.25 293.960938 C 203.515625 291.621094 200.78125 289.089844 197.992188 286.5 C 207.941406 275.53125 217.113281 263.914062 225.4375 251.714844 C 240.324219 250.480469 255.15625 248.210938 269.796875 244.902344 C 270.449219 247.558594 271.03125 250.21875 271.558594 252.824219 C 274.75 266.851562 275.261719 281.445312 273.179688 295.859375 Z M 278.828125 145.535156 C 282.214844 146.503906 285.460938 147.542969 288.582031 148.578125 C 318.886719 158.964844 340.15625 174.417969 340.15625 186.230469 C 340.15625 198.957031 317.457031 215.378906 285.003906 226.082031 C 283.183594 226.664062 281.367188 227.246094 279.480469 227.773438 C 274.929688 213.621094 269.339844 199.800781 262.898438 186.355469 C 269.144531 173.117188 274.417969 159.476562 278.828125 145.535156 Z M 205.125 80.367188 C 229.335938 59.347656 251.898438 51.109375 262.179688 57.007812 C 273.167969 63.308594 277.398438 88.746094 270.503906 122.171875 C 270.046875 124.375 269.585938 126.519531 269.003906 128.667969 C 254.5625 125.425781 239.9375 123.085938 225.230469 121.785156 C 216.78125 109.695312 207.539062 98.148438 197.519531 87.304688 C 200.058594 84.910156 202.53125 82.636719 205.125 80.367188 Z M 187.78125 97.246094 C 194.605469 104.640625 201.046875 112.425781 207.027344 120.46875 C 194.148438 119.886719 181.203125 119.886719 168.328125 120.46875 C 174.695312 112.105469 181.273438 104.324219 187.78125 97.246094 Z M 112.328125 57.464844 C 123.261719 51.109375 147.515625 60.191406 173.074219 82.777344 C 174.695312 84.203125 176.320312 85.769531 178.011719 87.320312 C 167.925781 98.148438 158.628906 109.695312 150.109375 121.769531 C 135.417969 123.074219 120.847656 125.34375 106.402344 128.527344 C 105.558594 125.21875 104.851562 121.839844 104.128906 118.460938 C 98.007812 87.042969 102.046875 63.363281 112.328125 57.464844 Z M 85.339844 148.96875 C 89.046875 147.664062 92.820312 146.503906 96.59375 145.394531 C 101.019531 159.476562 106.347656 173.3125 112.523438 186.671875 C 106.277344 200.242188 100.882812 214.257812 96.398438 228.535156 L 96.386719 228.546875 C 93.652344 227.773438 90.988281 226.929688 88.324219 226.015625 C 74.476562 221.664062 58.730469 214.785156 47.351562 205.769531 C 40.789062 201.226562 36.363281 194.21875 35.128906 186.355469 C 35.128906 174.472656 55.675781 159.285156 85.339844 148.96875 Z M 85.339844 148.96875 " fill-opacity="1" fill-rule="nonzero"/></g></svg>